<?xml version="1.0" encoding="UTF-8" standalone="no"?>
<svg
   version="1.1"
   viewBox="0 0 512 512"
   width="512.0pt"
   height="512.0pt"
   id="svg124"
   sodipodi:docname="not-found.svg"
   inkscape:version="1.1.1 (c3084ef, 2021-09-22)"
   xmlns:inkscape="http://www.inkscape.org/namespaces/inkscape"
   xmlns:sodipodi="http://sodipodi.sourceforge.net/DTD/sodipodi-0.dtd"
   xmlns="http://www.w3.org/2000/svg"
   xmlns:svg="http://www.w3.org/2000/svg">
  <defs
     id="defs128" />
  <sodipodi:namedview
     id="namedview126"
     pagecolor="#ffffff"
     bordercolor="#666666"
     borderopacity="1.0"
     inkscape:pageshadow="2"
     inkscape:pageopacity="0.0"
     inkscape:pagecheckerboard="0"
     inkscape:document-units="pt"
     showgrid="false"
     inkscape:zoom="1.0532227"
     inkscape:cx="335.63653"
     inkscape:cy="352.72694"
     inkscape:window-width="2052"
     inkscape:window-height="969"
     inkscape:window-x="1432"
     inkscape:window-y="161"
     inkscape:window-maximized="0"
     inkscape:current-layer="svg124" />
  <path
     d="M 241.06 26.77 C 246.52 27.62 250.59 33.28 253.36 37.62 C 261.19 50.52 267.24 64.75 275.74 77.40 C 276.68 79.13 278.28 78.85 279.97 79.25 C 287.47 80.20 295.44 82.17 301.98 86.07 C 308.77 90.44 314.22 96.73 315.39 104.98 C 316.62 113.46 317.21 122.97 314.50 131.21 C 311.55 139.99 306.51 148.43 299.56 154.63 C 297.30 156.72 294.72 157.57 291.72 158.04 C 288.72 165.45 283.45 171.79 275.23 173.31 C 266.22 174.92 256.98 174.31 247.91 175.77 C 245.21 180.12 243.48 184.80 243.80 190.01 C 244.74 202.10 249.39 213.49 254.83 224.20 C 256.57 227.55 259.67 229.98 261.69 233.21 C 267.71 242.38 273.17 251.94 278.48 261.53 C 281.39 266.85 284.53 271.99 288.10 276.91 C 293.71 274.27 299.80 272.90 306.01 273.59 C 314.01 274.49 321.51 278.28 327.76 283.24 C 333.12 287.36 336.93 293.89 340.47 299.58 C 356.00 299.57 371.50 300.00 387.00 301.03 C 389.43 301.41 393.08 301.13 394.69 303.34 C 397.12 306.31 396.99 311.35 397.15 315.00 C 397.03 323.11 397.58 330.70 396.25 338.71 C 403.37 345.22 410.50 351.93 418.16 357.81 C 421.88 360.80 426.64 363.80 429.16 367.90 C 431.59 371.98 430.26 376.91 429.17 381.19 C 426.95 388.69 424.68 396.31 421.34 403.40 C 424.93 407.82 429.35 411.90 432.26 416.79 C 434.48 420.51 434.25 424.85 432.77 428.79 C 430.29 435.20 426.48 440.88 421.77 445.87 C 426.02 451.58 428.77 458.63 427.42 465.82 C 426.14 470.59 421.56 473.90 417.94 476.89 C 414.55 479.50 411.43 482.45 407.99 484.99 C 405.34 487.01 402.53 486.91 399.38 487.35 C 393.87 496.88 386.60 505.31 377.85 512.00 L 366.39 512.00 C 377.53 505.27 386.73 496.25 394.89 486.19 C 390.36 484.92 385.92 483.62 381.81 481.26 C 372.49 481.47 363.23 482.42 354.01 483.73 C 341.77 485.33 330.15 484.60 317.92 485.10 C 315.45 493.94 314.77 502.99 313.27 512.00 L 304.43 512.00 C 307.81 503.20 310.29 494.09 313.66 485.28 C 308.06 484.49 302.68 484.72 297.00 484.53 C 274.30 483.95 251.69 484.56 229.00 484.74 C 206.55 484.96 184.12 487.44 161.69 487.19 C 159.52 487.19 157.34 487.23 155.16 487.32 C 152.83 486.72 151.73 485.36 150.26 483.63 C 148.03 488.46 145.65 493.07 141.99 497.01 C 139.20 500.10 135.84 502.02 132.31 504.14 C 131.90 506.78 131.53 509.39 130.96 512.00 L 125.16 512.00 C 126.07 509.81 126.85 507.59 127.67 505.37 C 120.85 506.77 113.94 507.19 107.00 507.15 C 102.63 507.05 99.19 508.87 94.99 509.61 C 90.80 510.41 86.60 511.18 82.42 512.00 L 62.99 512.00 C 69.20 509.74 75.51 508.35 82.01 507.24 C 86.70 506.59 90.32 503.50 94.97 503.16 C 103.94 502.47 112.93 503.44 122.00 502.08 C 127.29 501.30 132.30 499.98 136.50 496.49 C 140.89 492.84 144.07 487.30 147.48 482.72 C 147.37 481.17 147.26 479.63 147.15 478.09 C 155.62 477.85 163.53 477.57 171.59 474.52 C 174.76 473.31 175.17 469.82 175.62 466.88 C 176.10 461.06 176.23 453.90 173.35 448.63 C 171.14 444.77 166.85 440.95 162.75 439.26 C 159.13 438.42 155.09 438.42 151.38 438.48 C 145.85 439.70 140.57 442.79 135.81 445.79 C 133.10 447.66 129.22 450.51 128.63 453.95 C 129.08 461.76 133.36 469.23 133.98 477.03 C 134.14 479.25 132.96 479.44 131.34 480.37 C 129.39 474.30 127.75 468.15 125.90 462.05 C 125.19 459.48 124.35 456.67 124.49 453.99 C 124.81 451.73 125.78 449.46 126.59 447.33 C 121.97 442.06 117.01 436.72 113.13 430.89 C 111.02 427.62 109.17 423.99 109.73 419.97 C 110.31 415.68 113.38 412.16 115.93 408.83 C 115.61 406.75 115.29 404.66 114.96 402.58 C 110.54 405.69 106.52 409.10 101.84 411.83 C 92.33 417.48 82.83 422.36 73.90 428.96 C 73.26 429.32 72.63 429.68 71.99 430.04 C 60.15 437.07 48.41 444.89 38.37 454.38 C 35.05 457.47 33.39 461.40 31.94 465.60 C 31.52 466.91 31.12 468.23 30.75 469.55 C 29.76 473.39 29.16 477.27 28.97 481.24 C 28.89 483.50 28.93 485.76 29.07 488.01 C 29.58 496.53 32.34 504.39 36.03 512.00 L 30.47 512.00 C 26.04 503.40 23.80 493.65 23.74 484.00 C 23.68 473.29 26.98 462.80 32.73 453.80 C 35.78 449.54 36.16 443.25 37.19 438.21 C 38.31 430.93 41.16 424.44 43.39 417.50 C 45.77 410.23 48.05 402.95 50.88 395.84 C 60.44 372.24 65.67 347.97 76.82 324.84 C 83.01 311.84 90.55 299.05 101.64 289.62 C 107.29 284.88 113.80 280.27 120.82 277.86 C 127.53 275.48 134.16 275.45 141.05 276.99 C 143.16 273.24 145.79 269.88 148.31 266.40 C 157.35 253.74 164.82 238.59 166.51 222.98 C 162.35 209.77 157.07 196.62 154.04 183.01 C 151.56 171.30 149.44 160.03 150.73 147.99 C 152.57 130.95 158.94 114.24 168.26 99.90 C 161.59 79.57 155.12 60.77 155.16 39.00 C 155.29 35.63 155.59 31.77 158.49 29.54 C 161.29 27.64 164.98 27.58 168.20 28.22 C 175.69 29.69 183.01 33.55 189.48 37.51 C 202.10 45.23 213.54 54.83 223.28 65.96 C 224.66 55.32 227.34 44.57 231.79 34.78 C 233.46 31.43 236.74 26.36 241.06 26.77 Z"
     fill="#000000"
     id="path4" />
  <path
     d="M 240.07 30.84 C 243.96 30.91 247.29 35.78 249.28 38.70 C 257.34 51.49 263.38 66.29 272.76 78.72 C 270.00 78.61 266.52 79.41 264.20 77.77 C 252.55 71.36 239.18 68.44 225.91 69.44 C 228.92 58.24 230.39 47.32 235.49 36.47 C 236.59 34.33 237.93 32.08 240.07 30.84 Z"
     fill="#e1bd40"
     id="path6" />
  <path
     d="M 161.91 32.65 C 164.88 31.89 168.33 32.67 171.21 33.56 C 178.91 36.02 186.28 40.55 192.99 45.01 C 206.47 53.98 218.09 65.24 228.07 77.95 C 234.16 85.83 239.74 94.69 242.85 104.20 C 244.98 110.48 245.42 117.32 244.27 123.84 C 243.70 127.42 239.79 129.34 236.79 130.63 C 227.11 134.74 217.21 134.37 207.00 132.94 C 201.59 132.16 196.67 129.87 192.21 126.79 C 186.32 122.69 180.91 117.95 177.46 111.55 C 173.46 104.19 170.74 95.76 168.19 87.79 C 162.95 72.05 158.63 55.73 159.16 38.99 C 159.34 36.88 159.43 33.41 161.91 32.65 Z"
     fill="#e1bd40"
     id="path8" />
  <path
     d="M 228.69 71.70 C 239.13 72.18 249.45 74.95 258.80 79.62 C 256.80 81.17 254.60 82.48 252.48 83.87 C 261.20 83.89 269.54 82.30 278.29 83.55 C 287.80 84.88 298.59 87.28 305.35 94.65 C 308.97 98.25 310.76 102.87 311.39 107.88 C 312.41 115.98 313.10 124.27 310.05 132.03 C 306.86 140.37 301.54 148.76 294.06 153.86 C 291.79 151.45 290.13 149.02 286.62 148.44 C 279.02 147.14 271.17 150.15 263.77 151.64 C 257.08 152.96 249.97 154.20 243.15 153.58 C 240.63 153.37 238.96 152.32 237.20 150.60 C 235.31 144.86 228.99 141.65 224.56 137.82 C 230.39 136.91 236.36 135.37 241.59 132.59 C 243.72 131.26 246.30 129.84 246.45 127.04 C 247.21 120.78 249.10 115.39 247.82 108.99 C 245.23 94.23 237.01 83.54 228.69 71.70 Z"
     fill="#3f2e26"
     id="path10" />
  <path
     d="M 216.00 77.16 C 222.20 78.30 227.22 82.20 230.71 87.32 C 233.76 91.77 236.40 97.50 236.20 102.99 C 235.64 110.22 235.47 117.06 232.14 123.68 C 233.26 125.09 234.44 126.20 234.62 128.12 C 232.70 129.93 231.05 128.60 228.86 128.24 C 222.73 130.06 216.39 130.56 210.02 130.24 C 203.10 129.32 196.55 126.39 192.39 120.59 C 187.20 113.97 185.32 106.12 185.06 97.83 C 183.99 99.61 182.93 101.40 181.85 103.17 C 182.63 97.80 183.00 92.92 186.48 88.48 C 193.30 79.93 205.19 75.14 216.00 77.16 Z"
     fill="#000000"
     id="path12" />
  <path
     d="M 215.20 82.68 C 212.38 83.77 209.70 84.51 207.22 86.30 C 204.67 88.09 203.05 90.45 201.17 92.87 C 203.05 92.44 204.93 92.01 206.83 91.68 C 209.58 92.69 212.07 93.78 213.57 96.45 C 216.85 101.76 214.48 109.26 208.88 111.86 C 206.48 112.96 204.24 112.27 201.79 111.77 C 200.26 109.95 198.97 107.98 197.63 106.02 C 197.68 113.58 199.31 120.50 205.88 125.02 C 202.66 123.19 199.35 121.92 196.94 119.04 C 191.06 112.19 188.59 103.65 188.45 94.72 C 191.87 91.26 195.22 88.02 199.56 85.71 C 204.41 82.99 209.71 82.23 215.20 82.68 Z"
     fill="#ffffff"
     id="path14" />
  <path
     d="M 218.00 86.45 C 223.17 86.26 227.79 90.02 228.94 95.01 C 230.63 102.07 231.08 110.34 228.41 117.22 C 227.27 119.97 225.60 123.40 222.53 124.35 C 217.12 125.94 210.68 125.73 206.41 121.60 C 203.46 118.92 202.68 115.50 201.79 111.77 C 204.24 112.27 206.48 112.96 208.88 111.86 C 214.48 109.26 216.85 101.76 213.57 96.45 C 212.07 93.78 209.58 92.69 206.83 91.68 C 210.10 88.79 213.42 86.46 218.00 86.45 Z"
     fill="#4cabc7"
     id="path16" />
  <path
     d="M 169.58 103.78 C 171.80 108.28 173.35 112.69 176.16 116.87 C 178.73 120.74 182.02 123.83 185.60 126.75 C 177.48 127.15 169.79 130.14 164.68 136.67 C 159.05 143.55 158.27 152.46 158.84 161.00 C 160.60 177.67 165.80 193.15 172.63 208.36 C 176.48 216.96 181.68 224.18 183.51 233.17 C 185.41 243.90 184.19 254.15 182.73 264.77 C 181.55 267.03 180.55 269.36 179.67 271.76 C 176.70 280.02 171.60 287.65 167.65 295.59 C 166.14 298.68 164.32 301.57 162.56 304.52 C 165.95 304.16 171.96 305.65 173.99 302.28 C 174.11 302.86 174.23 303.45 174.36 304.03 C 178.61 303.68 182.87 303.46 187.12 303.09 C 182.03 303.65 177.16 304.54 172.02 304.58 C 164.16 304.64 156.24 305.47 148.41 306.18 C 148.27 321.27 146.54 336.26 146.55 351.36 C 135.25 357.41 126.08 368.24 117.80 377.83 C 113.74 382.07 114.52 387.61 111.19 392.12 C 107.83 397.04 104.02 401.65 100.48 406.45 C 97.62 410.49 93.48 411.92 89.38 414.38 C 78.71 420.56 68.37 427.33 58.05 434.08 C 51.98 437.85 46.61 442.53 40.75 446.59 C 41.40 436.13 45.26 426.92 48.56 417.15 C 54.57 414.14 59.82 410.17 65.24 406.25 C 74.08 399.77 82.65 392.95 91.42 386.40 C 94.24 384.25 97.41 382.42 99.99 379.99 C 102.12 378.24 101.43 374.46 101.42 372.00 C 100.63 363.14 100.11 354.27 99.34 345.42 C 101.16 343.72 103.51 341.99 104.68 339.75 C 105.56 336.71 104.93 333.10 104.68 329.99 C 103.83 322.68 103.66 315.35 103.63 308.00 C 103.53 305.90 103.66 303.29 102.66 301.38 C 101.79 299.73 99.73 299.89 98.14 299.51 C 106.59 290.37 119.05 280.61 131.99 280.24 C 142.63 279.84 149.69 285.46 159.38 287.93 C 155.26 282.71 149.67 280.38 143.75 277.81 C 156.44 264.58 165.44 247.62 169.36 229.72 C 174.72 240.49 176.74 252.27 181.99 263.07 C 182.25 259.72 182.36 256.41 181.70 253.09 C 179.16 240.36 174.06 229.43 169.53 217.47 C 162.79 198.41 156.53 180.38 155.15 160.00 C 154.30 146.04 157.89 131.87 162.96 118.95 C 165.07 113.77 166.90 108.56 169.58 103.78 Z"
     fill="#3f2e26"
     id="path18" />
  <path
     d="M 228.95 121.31 C 229.05 122.12 229.10 122.92 229.08 123.72 C 228.09 124.79 226.83 124.96 225.46 125.05 C 226.28 123.39 227.28 122.18 228.95 121.31 Z"
     fill="#7e7e7e"
     id="path20" />
  <path
     d="M 185.60 126.75 C 190.32 130.68 195.60 133.69 201.28 135.97 C 194.07 135.20 185.92 134.37 178.98 136.94 C 175.60 138.14 173.22 140.78 170.62 143.13 C 169.83 143.84 169.09 144.60 168.40 145.40 C 168.19 146.86 168.39 148.39 168.46 149.86 C 168.10 153.60 167.64 157.24 168.11 161.01 C 169.91 175.83 174.57 189.79 180.62 203.38 C 185.33 213.84 191.42 222.10 193.24 233.80 C 194.86 245.61 194.38 258.11 190.67 269.51 C 187.08 281.44 180.69 291.95 173.99 302.28 C 171.96 305.65 165.95 304.16 162.56 304.52 C 164.32 301.57 166.14 298.68 167.65 295.59 C 171.60 287.65 176.70 280.02 179.67 271.76 C 180.55 269.36 181.55 267.03 182.73 264.77 C 184.19 254.15 185.41 243.90 183.51 233.17 C 181.68 224.18 176.48 216.96 172.63 208.36 C 165.80 193.15 160.60 177.67 158.84 161.00 C 158.27 152.46 159.05 143.55 164.68 136.67 C 169.79 130.14 177.48 127.15 185.60 126.75 Z"
     fill="#e1bd40"
     id="path22" />
  <path
     d="M 201.28 135.97 L 201.81 136.11 C 207.44 138.02 212.97 139.96 218.22 142.79 C 223.95 145.87 229.60 149.08 235.36 152.10 C 236.81 154.86 238.60 157.11 241.94 157.39 C 255.51 158.85 268.25 153.98 280.98 152.35 C 284.30 151.85 286.67 152.33 289.63 153.74 C 287.20 158.57 284.86 163.08 280.40 166.37 C 277.31 168.62 273.72 169.21 270.01 169.54 C 261.21 170.22 252.38 170.66 243.56 170.85 C 244.33 171.48 245.11 172.12 245.89 172.76 C 236.25 172.53 226.63 172.14 217.00 171.62 C 207.81 171.05 197.78 170.29 189.12 166.97 C 183.73 164.90 179.92 160.84 176.88 156.06 C 174.23 151.98 173.22 147.25 170.62 143.13 C 173.22 140.78 175.60 138.14 178.98 136.94 C 185.92 134.37 194.07 135.20 201.28 135.97 Z"
     fill="#f7f4ee"
     id="path24" />
  <path
     d="M 201.81 136.11 C 209.34 137.50 216.91 138.05 224.56 137.82 C 228.99 141.65 235.31 144.86 237.20 150.60 L 234.93 149.77 L 235.36 152.10 C 229.60 149.08 223.95 145.87 218.22 142.79 C 212.97 139.96 207.44 138.02 201.81 136.11 Z"
     fill="#e1bd40"
     id="path26" />
  <path
     d="M 168.46 149.86 C 171.76 158.86 177.79 167.49 187.01 171.10 C 196.54 174.91 207.85 175.61 218.00 176.16 C 226.97 176.43 236.05 176.67 245.01 176.00 C 243.30 177.75 241.75 179.49 241.01 181.87 C 238.62 188.75 240.34 196.27 242.05 203.12 C 246.04 218.92 255.63 232.86 261.37 247.50 C 263.42 253.42 265.67 259.73 265.93 266.02 C 266.70 269.64 267.24 273.29 267.30 276.99 C 267.41 281.89 268.33 286.71 268.57 291.61 C 269.50 287.36 270.71 283.15 271.35 278.85 C 275.95 285.48 280.35 292.13 283.54 299.58 C 269.02 299.56 254.51 299.73 240.00 300.21 C 222.32 300.32 204.70 301.15 187.12 303.09 C 182.87 303.46 178.61 303.68 174.36 304.03 C 174.23 303.45 174.11 302.86 173.99 302.28 C 180.69 291.95 187.08 281.44 190.67 269.51 C 194.38 258.11 194.86 245.61 193.24 233.80 C 191.42 222.10 185.33 213.84 180.62 203.38 C 174.57 189.79 169.91 175.83 168.11 161.01 C 167.64 157.24 168.10 153.60 168.46 149.86 Z"
     fill="#f7f4ee"
     id="path28" />
  <path
     d="M 265.29 245.03 C 274.11 259.30 279.30 274.88 291.65 287.36 C 293.59 289.30 295.94 289.55 298.50 290.08 C 296.38 286.07 293.27 283.02 290.26 279.71 C 296.01 278.04 301.77 277.12 307.72 278.40 C 319.53 281.14 329.16 289.03 335.02 299.54 C 320.17 299.62 305.32 299.60 290.47 299.58 C 288.72 294.89 286.32 290.57 283.72 286.30 C 278.77 277.96 275.55 268.55 269.89 260.91 L 269.90 263.05 C 268.83 256.91 267.06 250.99 265.29 245.03 Z"
     fill="#3f2e26"
     id="path30" />
  <path
     d="M 269.89 260.91 C 275.55 268.55 278.77 277.96 283.72 286.30 C 286.32 290.57 288.72 294.89 290.47 299.58 C 288.16 299.58 285.85 299.58 283.54 299.58 C 280.35 292.13 275.95 285.48 271.35 278.85 C 271.48 273.53 270.84 268.28 269.90 263.05 L 269.89 260.91 Z"
     fill="#e1bd40"
     id="path32" />
  <path
     d="M 182.67 269.51 C 182.59 273.20 182.46 277.11 181.58 280.71 C 180.62 284.35 178.26 287.58 175.99 290.51 C 177.89 283.43 179.88 276.30 182.67 269.51 Z"
     fill="#514417"
     id="path34" />
  <path
     d="M 98.14 299.51 C 99.73 299.89 101.79 299.73 102.66 301.38 C 103.66 303.29 103.53 305.90 103.63 308.00 C 103.66 315.35 103.83 322.68 104.68 329.99 C 104.93 333.10 105.56 336.71 104.68 339.75 C 103.51 341.99 101.16 343.72 99.34 345.42 C 100.11 354.27 100.63 363.14 101.42 372.00 C 101.43 374.46 102.12 378.24 99.99 379.99 C 97.41 382.42 94.24 384.25 91.42 386.40 C 82.65 392.95 74.08 399.77 65.24 406.25 C 59.82 410.17 54.57 414.14 48.56 417.15 C 49.67 413.73 50.78 410.31 51.96 406.90 C 64.10 398.80 75.34 389.75 87.10 381.14 C 89.57 379.30 92.38 377.72 94.57 375.55 C 95.07 373.31 94.77 370.83 94.67 368.55 C 94.18 362.26 94.29 355.97 94.00 349.67 C 89.10 352.79 85.08 357.04 80.26 360.22 C 78.13 361.67 75.19 361.56 73.89 359.13 C 72.71 356.49 72.16 353.52 71.61 350.70 C 72.81 346.74 74.24 342.86 75.77 339.01 C 75.56 343.80 75.36 350.80 79.82 353.85 C 85.01 349.73 89.63 344.99 94.67 340.69 C 96.02 339.36 97.82 338.08 97.94 336.02 C 98.37 330.42 96.77 324.64 96.56 319.00 C 96.27 316.27 96.64 312.78 95.16 310.39 C 92.66 310.12 90.65 311.75 88.62 312.97 C 91.34 308.15 94.37 303.57 98.14 299.51 Z"
     fill="#755048"
     id="path36" />
  <path
     d="M 266.00 304.20 C 293.33 304.11 320.66 304.13 347.99 304.21 C 357.66 304.23 367.32 304.43 376.98 305.04 C 381.89 305.24 386.75 305.36 391.60 306.27 C 392.22 309.15 392.60 312.02 392.58 314.97 C 392.56 322.17 392.76 329.27 392.30 336.44 C 389.88 337.30 387.67 337.84 386.12 340.08 C 383.23 344.10 381.84 349.43 380.77 354.20 C 379.57 360.62 378.25 367.90 380.41 374.23 C 381.47 377.97 383.79 380.81 386.40 383.60 C 381.83 387.78 379.05 393.21 377.14 399.03 C 374.59 407.07 372.87 416.13 374.20 424.53 C 375.09 430.12 378.32 434.17 382.84 437.36 C 378.99 442.90 375.29 449.30 373.82 455.94 C 372.81 460.54 374.95 464.70 378.51 467.51 C 382.37 470.64 387.53 470.79 392.21 471.64 C 392.04 471.93 391.87 472.22 391.69 472.50 C 391.75 473.49 391.82 474.49 391.88 475.48 C 381.30 478.07 370.90 477.12 360.17 478.75 C 351.11 480.11 342.16 480.77 333.00 480.74 C 312.32 481.10 291.68 479.98 271.00 480.20 C 254.01 480.39 237.00 480.55 220.02 481.05 C 199.25 481.52 178.72 483.96 157.99 483.72 C 156.17 483.74 154.88 483.48 153.27 482.68 C 159.81 480.95 167.72 480.81 173.91 477.97 C 177.24 476.41 178.66 473.27 179.36 469.83 C 180.58 463.22 180.63 455.90 178.47 449.48 C 176.00 442.77 170.44 438.39 164.32 435.14 C 168.35 432.95 172.61 430.97 176.35 428.32 C 179.96 425.63 180.98 421.30 180.48 417.00 C 179.46 406.74 174.10 396.49 166.43 389.64 C 169.99 385.09 172.66 379.93 172.63 374.00 C 172.75 366.46 170.16 357.75 164.47 352.53 C 160.19 348.89 155.61 349.57 150.42 349.97 C 150.92 336.07 152.40 322.19 152.74 308.28 C 158.50 308.12 164.24 307.79 170.00 307.70 C 184.70 307.30 199.31 305.53 214.00 305.19 C 231.33 304.76 248.67 304.63 266.00 304.20 Z"
     fill="#ffffff"
     id="path38" />
  <path
     d="M 95.16 310.39 C 96.64 312.78 96.27 316.27 96.56 319.00 C 96.77 324.64 98.37 330.42 97.94 336.02 C 97.82 338.08 96.02 339.36 94.67 340.69 C 89.63 344.99 85.01 349.73 79.82 353.85 C 75.36 350.80 75.56 343.80 75.77 339.01 C 79.45 330.12 83.32 321.03 88.62 312.97 C 90.65 311.75 92.66 310.12 95.16 310.39 Z"
     fill="#efafa3"
     id="path40" />
  <path
     d="M 216.98 314.43 C 223.32 313.99 230.15 313.36 236.38 314.80 C 236.32 316.20 236.17 317.57 235.94 318.94 C 233.43 320.41 230.03 319.93 227.18 320.06 C 227.01 327.02 227.08 333.98 227.03 340.94 C 229.26 341.01 231.64 340.81 233.81 341.33 C 235.96 342.01 235.91 344.35 235.02 346.04 C 232.76 347.30 230.50 346.95 228.00 347.03 C 223.41 346.93 219.21 347.40 214.73 346.24 C 214.71 344.75 214.71 343.26 214.73 341.77 C 216.89 341.30 219.06 341.00 221.26 340.79 C 220.93 333.89 221.25 327.02 221.72 320.13 C 219.56 319.80 214.93 320.61 214.09 317.87 C 213.01 316.29 215.35 314.29 216.98 314.43 Z"
     fill="#000000"
     id="path42" />
  <path
     d="M 240.93 323.35 C 242.00 323.42 243.07 323.54 244.13 323.71 C 244.38 325.12 244.58 326.54 244.74 327.96 C 246.33 326.64 248.04 324.67 250.16 324.33 C 252.35 323.88 253.97 325.17 255.77 326.15 C 258.57 324.99 261.44 323.39 264.51 324.71 C 267.01 325.89 267.80 328.38 268.12 330.94 C 268.74 336.25 269.80 341.59 270.06 346.92 C 268.77 349.24 267.12 348.58 264.94 348.34 C 263.52 342.25 264.05 335.68 261.98 329.86 C 259.82 330.25 258.11 331.35 256.23 332.38 C 256.55 338.08 257.73 343.58 257.28 349.34 C 256.14 349.48 255.01 349.58 253.87 349.65 C 252.20 348.74 251.99 347.84 251.92 346.05 C 251.69 340.52 250.91 335.06 250.63 329.54 C 248.59 331.17 246.77 332.98 245.04 334.93 C 244.98 338.53 245.33 342.32 244.64 345.86 C 244.33 348.15 240.03 348.57 239.62 346.10 C 238.46 341.97 239.19 337.27 238.94 333.00 C 238.98 330.11 238.47 325.44 240.93 323.35 Z"
     fill="#000000"
     id="path44" />
  <path
     d="M 317.21 327.90 C 317.54 331.38 316.63 334.56 316.32 338.00 C 315.93 342.70 315.97 348.00 314.51 352.52 C 313.39 355.82 310.42 358.02 307.01 358.49 C 303.58 359.10 299.04 359.04 296.10 356.91 C 295.82 355.49 295.68 354.06 295.66 352.59 C 299.44 352.18 303.19 353.38 306.88 352.77 C 309.84 351.92 310.21 348.44 311.11 345.98 C 307.63 347.31 304.72 348.64 301.01 346.93 C 295.07 344.26 294.58 336.36 297.07 331.13 C 300.50 323.64 311.60 321.81 317.21 327.90 Z"
     fill="#000000"
     id="path46" />
  <path
     d="M 337.19 325.76 C 340.13 327.35 340.47 331.78 337.66 333.69 C 333.78 336.47 328.88 337.90 324.62 340.05 C 327.76 342.24 331.09 342.51 334.75 341.51 C 336.72 341.03 338.40 339.90 340.41 340.60 C 341.06 342.83 340.59 344.35 338.62 345.64 C 333.54 348.91 325.22 348.54 321.15 343.78 C 318.00 339.40 319.10 332.37 322.18 328.21 C 325.51 323.53 332.46 323.26 337.19 325.76 Z"
     fill="#000000"
     id="path48" />
  <path
     d="M 293.05 327.72 C 292.17 330.79 291.92 333.82 292.08 337.00 C 292.12 340.74 293.82 343.60 294.53 347.31 C 291.12 348.31 289.10 345.33 285.92 346.93 C 281.38 348.78 275.39 347.42 273.42 342.57 C 271.63 337.36 272.20 331.35 276.56 327.57 C 281.34 323.19 288.39 323.09 293.05 327.72 Z"
     fill="#000000"
     id="path50" />
  <path
     d="M 286.76 329.80 C 286.66 333.59 286.77 337.32 287.07 341.10 C 284.68 341.71 281.88 342.60 279.52 341.47 C 277.09 338.95 277.65 333.63 280.53 331.57 C 282.41 329.96 284.45 330.15 286.76 329.80 Z"
     fill="#ffffff"
     id="path52" />
  <path
     d="M 311.86 330.23 C 311.23 333.93 311.39 338.67 308.05 341.08 C 306.32 342.53 302.06 342.54 301.44 339.83 C 300.66 336.64 301.21 333.06 304.06 331.08 C 306.09 329.53 309.46 330.18 311.86 330.23 Z"
     fill="#ffffff"
     id="path54" />
  <path
     d="M 328.18 330.26 C 330.24 329.77 332.62 330.20 334.70 330.39 C 331.55 332.73 327.97 334.07 324.25 335.22 C 325.23 333.63 326.23 330.87 328.18 330.26 Z"
     fill="#ffffff"
     id="path56" />
  <path
     d="M 391.28 341.18 C 393.63 341.99 395.59 343.96 397.37 345.63 C 404.17 352.23 411.38 358.38 418.96 364.06 C 421.35 366.00 424.52 368.27 425.72 371.18 C 426.47 373.92 425.57 377.24 424.91 379.95 C 423.01 386.79 420.89 393.58 418.71 400.33 C 412.61 394.79 408.92 388.53 401.36 384.62 C 397.66 382.38 393.69 382.24 389.63 381.19 C 385.73 378.42 383.75 372.64 383.65 368.00 C 383.56 362.31 384.68 356.55 386.09 351.05 C 387.12 347.53 388.31 343.57 391.28 341.18 Z"
     fill="#3f2e26"
     id="path58" />
  <path
     d="M 94.00 349.67 C 94.29 355.97 94.18 362.26 94.67 368.55 C 94.77 370.83 95.07 373.31 94.57 375.55 C 92.38 377.72 89.57 379.30 87.10 381.14 C 75.34 389.75 64.10 398.80 51.96 406.90 C 54.67 398.80 58.08 390.96 60.83 382.86 C 64.51 372.16 67.66 361.31 71.61 350.70 C 72.16 353.52 72.71 356.49 73.89 359.13 C 75.19 361.56 78.13 361.67 80.26 360.22 C 85.08 357.04 89.10 352.79 94.00 349.67 Z"
     fill="#3f2e26"
     id="path60" />
  <path
     d="M 151.12 354.23 C 154.94 353.33 159.06 352.89 162.07 355.93 C 165.77 359.84 167.58 365.73 168.12 370.99 C 168.80 376.63 166.45 382.13 163.47 386.77 C 159.52 386.09 156.17 384.15 152.00 384.54 C 146.79 384.93 142.47 387.29 138.32 390.28 C 131.67 395.20 125.40 400.45 119.18 405.88 C 118.42 399.16 116.34 393.59 117.64 386.74 C 118.21 383.32 120.20 380.96 122.36 378.39 C 126.99 373.05 131.82 367.82 137.01 363.01 C 141.28 359.14 145.37 355.64 151.12 354.23 Z"
     fill="#3f2e26"
     id="path62" />
  <path
     d="M 301.99 380.06 C 302.84 381.85 302.96 383.93 303.21 385.87 C 305.93 386.48 309.65 385.45 310.35 389.00 C 309.28 392.65 306.25 391.09 303.31 391.86 C 302.83 396.54 303.57 401.33 303.30 406.04 C 303.25 407.43 302.98 408.99 301.54 409.56 C 299.97 410.35 297.54 408.99 297.81 407.06 C 297.76 402.04 297.81 397.03 297.57 392.02 C 295.81 391.46 290.43 391.88 290.77 389.03 C 290.65 385.61 294.97 386.21 297.21 385.82 C 297.14 384.27 296.99 382.66 297.15 381.12 C 298.14 379.14 300.26 378.62 301.99 380.06 Z"
     fill="#000000"
     id="path64" />
  <path
     d="M 250.96 386.69 C 251.28 387.51 251.59 388.33 251.89 389.15 C 255.09 387.05 257.97 385.09 261.85 387.05 C 265.15 389.20 265.03 394.54 265.10 398.00 C 264.96 401.68 265.86 405.24 265.92 408.88 C 264.59 411.20 263.06 410.57 260.81 410.42 C 259.29 404.23 259.62 398.10 259.62 391.80 C 255.78 391.97 254.08 394.28 252.56 397.49 C 250.56 401.50 251.45 405.85 251.23 410.29 C 249.19 410.44 246.99 411.45 246.07 408.86 C 245.16 402.36 246.39 395.56 246.12 388.97 C 246.39 386.06 248.66 386.07 250.96 386.69 Z"
     fill="#000000"
     id="path66" />
  <path
     d="M 276.44 386.63 C 280.36 385.51 284.70 386.68 286.73 390.39 C 289.54 395.31 288.96 402.81 284.94 406.95 C 281.13 410.91 274.11 410.62 270.67 406.32 C 265.55 400.08 268.38 388.72 276.44 386.63 Z"
     fill="#000000"
     id="path68" />
  <path
     d="M 393.01 386.43 C 399.35 387.60 404.41 391.73 408.60 396.42 C 414.11 402.56 419.86 408.51 425.24 414.77 C 427.67 417.80 430.20 420.84 429.15 425.03 C 427.51 431.52 423.08 437.55 419.27 442.97 C 413.12 437.40 405.40 432.05 397.02 430.87 C 392.75 430.27 389.55 432.10 385.88 433.89 C 383.20 431.82 380.66 430.02 379.15 426.87 C 377.81 424.24 378.12 420.87 378.23 418.00 C 378.79 409.01 380.83 399.33 385.58 391.57 C 387.15 389.19 389.77 385.84 393.01 386.43 Z"
     fill="#3f2e26"
     id="path70" />
  <path
     d="M 156.91 389.16 C 163.38 391.07 168.18 396.98 171.36 402.64 C 174.36 408.10 176.63 414.76 176.14 421.03 C 175.75 424.33 172.82 425.73 170.28 427.25 C 166.79 429.03 163.51 431.25 159.97 432.91 C 156.66 433.94 152.99 433.66 149.62 434.57 C 141.88 436.68 135.66 440.96 129.07 445.28 C 125.33 440.24 121.40 435.36 117.72 430.29 C 115.91 427.67 113.62 424.27 113.74 420.98 C 114.13 416.69 117.91 412.74 120.85 409.85 C 127.08 404.05 133.79 398.74 140.59 393.62 C 145.43 390.11 150.79 387.45 156.91 389.16 Z"
     fill="#3f2e26"
     id="path72" />
  <path
     d="M 277.19 392.26 C 278.80 391.88 281.58 391.61 282.37 393.49 C 283.25 395.73 283.15 398.51 282.75 400.85 C 281.85 404.14 277.44 405.00 274.99 403.01 C 272.60 400.10 273.63 393.85 277.19 392.26 Z"
     fill="#ffffff"
     id="path74" />
  <path
     d="M 113.62 394.03 C 115.11 394.45 114.34 395.34 114.29 396.49 C 113.83 398.84 111.65 399.60 109.84 400.71 C 110.92 398.38 112.10 396.11 113.62 394.03 Z"
     fill="#868686"
     id="path76" />
  <path
     d="M 114.96 402.58 C 115.29 404.66 115.61 406.75 115.93 408.83 C 113.38 412.16 110.31 415.68 109.73 419.97 C 109.17 423.99 111.02 427.62 113.13 430.89 C 117.01 436.72 121.97 442.06 126.59 447.33 C 125.78 449.46 124.81 451.73 124.49 453.99 C 124.35 456.67 125.19 459.48 125.90 462.05 C 127.75 468.15 129.39 474.30 131.34 480.37 C 132.96 479.44 134.14 479.25 133.98 477.03 C 133.36 469.23 129.08 461.76 128.63 453.95 C 129.22 450.51 133.10 447.66 135.81 445.79 C 140.57 442.79 145.85 439.70 151.38 438.48 C 155.09 438.42 159.13 438.42 162.75 439.26 C 166.85 440.95 171.14 444.77 173.35 448.63 C 176.23 453.90 176.10 461.06 175.62 466.88 C 175.17 469.82 174.76 473.31 171.59 474.52 C 163.53 477.57 155.62 477.85 147.15 478.09 C 147.26 479.63 147.37 481.17 147.48 482.72 C 144.07 487.30 140.89 492.84 136.50 496.49 C 132.30 499.98 127.29 501.30 122.00 502.08 C 112.93 503.44 103.94 502.47 94.97 503.16 C 90.32 503.50 86.70 506.59 82.01 507.24 C 75.51 508.35 69.20 509.74 62.99 512.00 L 36.03 512.00 C 32.34 504.39 29.58 496.53 29.07 488.01 C 31.66 487.82 34.59 488.01 37.06 487.13 C 39.61 485.18 40.74 481.50 43.05 479.24 C 50.75 481.23 58.15 484.49 65.85 486.63 C 64.67 489.76 63.14 492.89 62.40 496.16 C 61.95 498.08 63.33 499.32 65.10 499.66 C 70.30 500.76 75.71 500.96 81.00 501.38 C 82.90 501.34 85.89 501.85 87.25 500.24 C 89.51 497.82 91.10 494.70 92.93 491.95 C 95.49 487.87 98.49 484.12 101.20 480.14 C 102.11 478.65 103.37 476.94 102.97 475.09 C 97.70 473.94 92.21 473.97 86.92 472.76 C 87.48 466.56 88.43 460.42 89.26 454.25 C 91.21 453.15 93.41 452.59 94.40 450.44 C 96.27 446.84 97.57 442.95 99.30 439.28 C 100.58 436.29 102.29 433.19 102.85 429.97 C 103.09 427.83 101.49 425.11 99.03 425.52 C 90.64 425.49 82.11 427.36 73.90 428.96 C 82.83 422.36 92.33 417.48 101.84 411.83 C 106.52 409.10 110.54 405.69 114.96 402.58 Z"
     fill="#3f2e26"
     id="path78" />
  <path
     d="M 99.03 425.52 C 101.49 425.11 103.09 427.83 102.85 429.97 C 102.29 433.19 100.58 436.29 99.30 439.28 C 97.57 442.95 96.27 446.84 94.40 450.44 C 93.41 452.59 91.21 453.15 89.26 454.25 C 88.43 460.42 87.48 466.56 86.92 472.76 C 92.21 473.97 97.70 473.94 102.97 475.09 C 103.37 476.94 102.11 478.65 101.20 480.14 C 98.49 484.12 95.49 487.87 92.93 491.95 C 91.10 494.70 89.51 497.82 87.25 500.24 C 85.89 501.85 82.90 501.34 81.00 501.38 C 75.71 500.96 70.30 500.76 65.10 499.66 C 63.33 499.32 61.95 498.08 62.40 496.16 C 63.14 492.89 64.67 489.76 65.85 486.63 C 58.15 484.49 50.75 481.23 43.05 479.24 C 40.74 481.50 39.61 485.18 37.06 487.13 C 34.59 488.01 31.66 487.82 29.07 488.01 C 28.93 485.76 28.89 483.50 28.97 481.24 C 30.78 481.02 34.10 482.03 35.19 480.23 C 37.25 477.47 39.20 474.10 40.50 470.90 L 39.48 469.60 C 36.64 469.14 33.62 469.47 30.75 469.55 C 31.12 468.23 31.52 466.91 31.94 465.60 C 36.73 464.38 42.00 462.82 46.97 463.08 C 48.52 463.15 49.35 464.56 49.17 465.99 C 48.59 468.60 47.19 471.15 46.05 473.56 C 53.60 475.81 60.70 479.03 68.04 481.78 C 70.25 479.40 71.27 475.85 73.51 473.51 C 75.18 472.24 77.85 472.17 79.84 471.65 C 80.72 465.52 81.59 459.40 82.15 453.23 C 77.87 452.91 73.22 453.21 69.08 452.01 C 66.90 451.24 67.35 449.50 67.55 447.66 C 68.63 441.71 70.77 435.98 71.99 430.04 C 72.63 429.68 73.26 429.32 73.90 428.96 C 82.11 427.36 90.64 425.49 99.03 425.52 Z"
     fill="#755048"
     id="path80" />
  <path
     d="M 71.99 430.04 C 70.77 435.98 68.63 441.71 67.55 447.66 C 67.35 449.50 66.90 451.24 69.08 452.01 C 73.22 453.21 77.87 452.91 82.15 453.23 C 81.59 459.40 80.72 465.52 79.84 471.65 C 77.85 472.17 75.18 472.24 73.51 473.51 C 71.27 475.85 70.25 479.40 68.04 481.78 C 60.70 479.03 53.60 475.81 46.05 473.56 C 47.19 471.15 48.59 468.60 49.17 465.99 C 49.35 464.56 48.52 463.15 46.97 463.08 C 42.00 462.82 36.73 464.38 31.94 465.60 C 33.39 461.40 35.05 457.47 38.37 454.38 C 48.41 444.89 60.15 437.07 71.99 430.04 Z"
     fill="#3f2e26"
     id="path82" />
  <path
     d="M 95.64 431.85 C 95.53 434.82 93.77 437.79 92.69 440.53 C 91.76 442.42 91.01 444.97 89.39 446.36 C 86.33 446.95 83.11 446.90 80.00 447.09 C 77.99 447.02 76.20 447.60 74.61 446.07 C 74.04 442.35 74.19 438.06 75.58 434.53 C 77.13 431.11 82.93 432.08 86.02 431.50 C 88.97 431.49 93.14 430.03 95.64 431.85 Z"
     fill="#efafa3"
     id="path84" />
  <path
     d="M 409.16 440.83 C 414.97 444.65 420.86 450.45 422.57 457.40 C 423.34 460.82 423.93 464.56 421.49 467.47 C 418.53 471.08 414.43 473.83 411.03 477.04 C 408.77 478.96 406.58 481.54 403.86 482.77 C 398.33 482.96 392.85 482.69 387.62 480.67 C 389.44 480.18 391.28 479.75 393.07 479.16 C 394.12 478.69 395.99 478.51 395.71 476.92 C 395.69 475.05 395.43 473.19 395.20 471.34 C 399.02 471.00 403.19 470.91 406.86 469.72 C 408.66 469.30 409.42 467.33 410.48 465.99 C 405.02 464.56 400.47 466.56 395.00 466.59 C 391.32 466.63 387.31 466.51 383.82 465.24 C 380.39 463.86 377.62 460.51 378.56 456.64 C 379.78 451.52 382.37 446.62 385.22 442.23 C 386.69 439.76 388.97 439.33 391.45 438.33 C 391.54 437.53 391.62 436.73 391.70 435.93 C 398.29 434.54 403.72 437.51 409.16 440.83 Z"
     fill="#3f2e26"
     id="path86" />
  <path
     d="M 237.85 437.48 C 240.03 437.99 240.50 440.51 239.00 442.08 C 237.01 442.84 234.77 442.97 232.84 443.84 C 231.98 445.00 231.38 446.42 230.74 447.72 C 233.67 447.86 236.56 448.03 239.40 448.79 C 239.07 450.40 239.54 452.13 238.02 453.13 C 235.76 453.54 233.38 453.48 231.15 453.98 C 230.71 460.58 231.78 466.85 230.16 473.39 C 228.82 473.42 227.01 474.08 225.98 473.02 C 224.71 471.94 225.21 470.92 225.29 469.48 C 225.96 464.34 225.62 459.43 225.74 454.24 C 224.15 454.00 222.05 454.18 220.69 453.27 C 219.96 451.93 219.26 450.78 220.56 449.49 C 221.78 448.37 224.07 448.40 225.62 447.94 C 226.25 445.30 226.71 441.72 228.70 439.72 C 230.97 437.51 234.85 436.86 237.85 437.48 Z"
     fill="#000000"
     id="path88" />
  <path
     d="M 333.94 439.14 C 334.43 444.03 333.12 449.05 333.18 454.00 C 332.78 459.69 333.60 465.44 333.13 471.08 C 331.07 472.10 330.27 471.56 328.33 470.75 C 324.02 471.96 319.99 472.51 316.01 469.97 C 308.26 465.13 310.52 450.82 319.46 448.70 C 322.44 447.79 325.12 448.40 327.98 449.34 C 328.32 445.89 328.39 442.37 328.99 438.96 C 329.58 436.38 333.14 436.88 333.94 439.14 Z"
     fill="#000000"
     id="path90" />
  <path
     d="M 250.44 448.63 C 254.36 447.51 258.70 448.68 260.73 452.39 C 263.53 457.30 262.96 464.81 258.94 468.95 C 255.13 472.91 248.11 472.62 244.67 468.32 C 239.55 462.08 242.38 450.72 250.44 448.63 Z"
     fill="#000000"
     id="path92" />
  <path
     d="M 271.24 448.86 C 271.29 454.57 270.69 460.17 271.51 465.88 C 274.15 465.95 276.77 465.89 279.40 465.71 C 279.39 461.07 279.15 456.62 279.59 451.98 C 279.82 451.07 279.59 448.97 280.73 448.72 C 282.53 447.56 285.30 448.59 285.14 450.95 C 284.96 457.24 285.19 463.59 284.89 469.86 C 284.08 472.85 280.09 470.92 277.85 471.39 C 273.74 471.95 268.26 472.32 266.53 467.55 C 265.26 462.92 265.08 454.83 266.10 450.13 C 266.92 447.45 269.24 448.42 271.24 448.86 Z"
     fill="#000000"
     id="path94" />
  <path
     d="M 293.96 448.69 C 294.28 449.51 294.59 450.33 294.89 451.15 C 298.09 449.05 300.97 447.09 304.85 449.05 C 308.15 451.20 308.03 456.54 308.10 460.00 C 307.96 463.68 308.86 467.24 308.92 470.88 C 307.59 473.20 306.06 472.57 303.81 472.42 C 302.29 466.23 302.62 460.10 302.62 453.80 C 298.78 453.97 297.08 456.28 295.56 459.49 C 293.56 463.50 294.45 467.85 294.23 472.29 C 292.19 472.44 289.99 473.45 289.07 470.86 C 288.16 464.36 289.39 457.56 289.12 450.97 C 289.39 448.06 291.66 448.07 293.96 448.69 Z"
     fill="#000000"
     id="path96" />
  <path
     d="M 251.19 454.26 C 252.80 453.88 255.58 453.61 256.37 455.49 C 257.25 457.73 257.15 460.51 256.75 462.85 C 255.84 466.14 251.44 467.00 248.99 465.01 C 246.60 462.10 247.63 455.85 251.19 454.26 Z"
     fill="#ffffff"
     id="path98" />
  <path
     d="M 327.74 455.99 C 327.71 458.69 327.71 461.39 327.73 464.10 C 325.10 466.08 321.00 467.06 318.30 464.72 C 315.01 462.20 316.05 456.33 319.48 454.46 C 322.69 453.50 325.19 453.78 327.74 455.99 Z"
     fill="#ffffff"
     id="path100" />
  <path
     d="M 30.75 469.55 C 33.62 469.47 36.64 469.14 39.48 469.60 L 40.50 470.90 C 39.20 474.10 37.25 477.47 35.19 480.23 C 34.10 482.03 30.78 481.02 28.97 481.24 C 29.16 477.27 29.76 473.39 30.75 469.55 Z"
     fill="#efafa3"
     id="path102" />
  <path
     d="M 76.28 478.32 C 79.80 477.87 83.47 478.28 87.01 478.36 C 89.09 478.63 91.08 478.07 92.52 479.89 C 91.08 485.00 88.14 489.90 85.35 494.39 C 83.26 497.84 79.35 496.59 76.00 496.46 C 73.67 496.06 70.26 495.97 68.64 494.06 C 68.82 491.02 70.99 488.02 72.27 485.30 C 73.55 483.05 74.46 480.18 76.28 478.32 Z"
     fill="#efafa3"
     id="path104" />
  <path
     d="M 381.81 481.26 C 385.92 483.62 390.36 484.92 394.89 486.19 C 386.73 496.25 377.53 505.27 366.39 512.00 L 313.27 512.00 C 314.77 502.99 315.45 493.94 317.92 485.10 C 330.15 484.60 341.77 485.33 354.01 483.73 C 363.23 482.42 372.49 481.47 381.81 481.26 Z"
     fill="#3f2e26"
     id="path108" />
  <path
     d="M 150.26 483.63 C 151.73 485.36 152.83 486.72 155.16 487.32 C 150.72 495.27 147.44 503.87 143.33 512.00 L 130.96 512.00 C 131.53 509.39 131.90 506.78 132.31 504.14 C 135.84 502.02 139.20 500.10 141.99 497.01 C 145.65 493.07 148.03 488.46 150.26 483.63 Z"
     fill="#3f2e26"
     id="path110" />
  <path
     d="M 229.00 484.74 C 251.69 484.56 274.30 483.95 297.00 484.53 C 302.68 484.72 308.06 484.49 313.66 485.28 C 310.29 494.09 307.81 503.20 304.43 512.00 L 155.56 512.00 C 158.83 504.01 160.99 495.81 161.69 487.19 C 184.12 487.44 206.55 484.96 229.00 484.74 Z"
     fill="#f7f4ee"
     id="path112" />
  <path
     d="M 155.16 487.32 C 157.34 487.23 159.52 487.19 161.69 487.19 C 160.99 495.81 158.83 504.01 155.56 512.00 L 143.33 512.00 C 147.44 503.87 150.72 495.27 155.16 487.32 Z"
     fill="#e1bd40"
     id="path114" />
  <path
     d="M 127.67 505.37 C 126.85 507.59 126.07 509.81 125.16 512.00 L 82.42 512.00 C 86.60 511.18 90.80 510.41 94.99 509.61 C 99.19 508.87 102.63 507.05 107.00 507.15 C 113.94 507.19 120.85 506.77 127.67 505.37 Z"
     fill="#ffffff"
     id="path122" />
</svg>
